<svg width="12" height="11" viewBox="0 0 12 11" fill="none" xmlns="http://www.w3.org/2000/svg">
<path d="M9.04186 10.2744C8.41116 10.2744 7.74698 10.1531 7.06047 9.91941C6.3907 9.69024 5.71535 9.37569 5.05674 8.99373C4.40372 8.60728 3.77302 8.17589 3.17581 7.70407C2.58419 7.22325 2.04837 6.71547 1.57395 6.19421C1.09395 5.65498 0.708837 5.11575 0.435349 4.59449C0.145116 4.03729 0 3.49805 0 2.99028C0 2.63977 0.0781395 2.30725 0.228837 1.99719C0.385116 1.67814 0.636279 1.38157 0.976744 1.12543C1.40651 0.783916 1.89767 0.613159 2.42233 0.613159C2.64 0.613159 2.86326 0.653602 3.05302 0.725499C3.2707 0.806384 3.45488 0.927711 3.58884 1.08948L4.88372 2.55889C5.00093 2.6892 5.09023 2.81502 5.15163 2.94085C5.22419 3.07565 5.26326 3.21046 5.26326 3.34078C5.26326 3.51153 5.20186 3.6778 5.08465 3.83507C5.00093 3.9564 4.87256 4.08671 4.7107 4.21703L4.33116 4.53608C4.33674 4.54956 4.34233 4.55854 4.34791 4.56753C4.41488 4.6619 4.54884 4.82367 4.80558 5.06632C5.07907 5.31796 5.33581 5.54714 5.59256 5.75834C5.92186 6.01896 6.19535 6.22567 6.45209 6.39643C6.77023 6.61212 6.97674 6.71997 7.09954 6.7694L7.08837 6.79186L7.49581 6.46832C7.66884 6.32902 7.83628 6.22567 7.99814 6.15827C8.30512 6.00548 8.69582 5.97852 9.08651 6.10884C9.23163 6.15827 9.38791 6.22567 9.55535 6.32004L11.4084 7.38053C11.6149 7.49287 11.7656 7.63666 11.8549 7.80742C11.9386 7.97818 11.9777 8.13545 11.9777 8.29273C11.9777 8.50842 11.9163 8.72411 11.7991 8.92633C11.6819 9.12854 11.5367 9.30379 11.3526 9.46556C11.0344 9.74866 10.6884 9.95087 10.2865 10.0812C9.9014 10.207 9.48279 10.2744 9.04186 10.2744ZM2.42233 1.2872C2.11535 1.2872 1.8307 1.39505 1.55721 1.61074C1.30047 1.80396 1.12186 2.01516 1.01023 2.24434C0.893023 2.478 0.837209 2.72515 0.837209 2.99028C0.837209 3.40818 0.96 3.86203 1.20558 4.32937C1.45674 4.80569 1.80837 5.29999 2.25488 5.79428C2.7014 6.28858 3.2093 6.7694 3.76744 7.22325C4.32558 7.66812 4.92837 8.08153 5.54791 8.44551C6.1507 8.80051 6.77023 9.0881 7.38419 9.2948C8.3386 9.62283 9.23163 9.69923 9.96837 9.45208C10.253 9.35771 10.5042 9.21392 10.733 9.00721C10.8614 8.89487 10.9619 8.77354 11.0456 8.62975C11.1126 8.51741 11.146 8.40057 11.146 8.28374C11.146 8.21184 11.1293 8.13995 11.0847 8.05906C11.0679 8.0321 11.0344 7.98267 10.9284 7.92425L9.07535 6.86376C8.96372 6.80085 8.86326 6.75592 8.76837 6.72446C8.64558 6.68402 8.59535 6.64358 8.40558 6.73794C8.29395 6.78288 8.19349 6.85028 8.08186 6.94015L7.65767 7.27717C7.44 7.44793 7.10512 7.48837 6.84837 7.41198L6.69767 7.35806C6.46884 7.2592 6.20093 7.10642 5.90512 6.9042C5.63721 6.71997 5.34698 6.50427 4.99535 6.22567C4.72186 6.00099 4.44837 5.76283 4.16372 5.49771C3.9014 5.25056 3.71163 5.03936 3.59442 4.86411L3.52744 4.7293C3.49395 4.62595 3.48279 4.56753 3.48279 4.50462C3.48279 4.34285 3.55535 4.19905 3.69488 4.08671L4.11349 3.73621C4.22512 3.64634 4.30884 3.56096 4.36465 3.48457C4.4093 3.42616 4.42605 3.37673 4.42605 3.33179C4.42605 3.29584 4.4093 3.24192 4.3814 3.18799C4.34233 3.1161 4.28093 3.03521 4.20279 2.94983L2.90791 1.47593C2.85209 1.41302 2.78512 1.36808 2.7014 1.33663C2.61209 1.30517 2.51721 1.2872 2.42233 1.2872ZM7.08837 6.79636L6.99907 7.10192L7.14977 6.78737C7.12186 6.78288 7.09953 6.78737 7.08837 6.79636Z" fill="white"/>
</svg>
